<svg xmlns="http://www.w3.org/2000/svg" viewBox="0 0 32 45"><g id="레이어_2" data-name="레이어 2"><path d="M4.43,35.2a.84.84,0,0,1-.87-.86.76.76,0,0,1,.25-.6.82.82,0,0,1,.62-.23H6.91V10.73a1.08,1.08,0,0,1,.3-.77A1,1,0,0,1,8,9.64H19.09a1,1,0,0,1,.77.32,1.06,1.06,0,0,1,.32.77v.52H24a1.06,1.06,0,0,1,.77.32,1,1,0,0,1,.32.77V33.51h2.45a.84.84,0,0,1,.62.24.86.86,0,0,1,.24.62.82.82,0,0,1-.24.59.84.84,0,0,1-.62.24H24.46a1.05,1.05,0,0,1-.79-.32,1.08,1.08,0,0,1-.3-.77V13H20.18V34.11a1.06,1.06,0,0,1-.32.77,1.07,1.07,0,0,1-.77.32ZM8.6,11.33v0Zm7.86,11.09a1.3,1.3,0,1,0-.38.94A1.27,1.27,0,0,0,16.46,22.42ZM8.6,33.51h9.85V11.33H8.6Z"/></g></svg>